<svg width="34" height="34" viewBox="0 0 34 34" fill="none" xmlns="http://www.w3.org/2000/svg">
<path d="M17.0002 24.0833C17.4016 24.0833 17.7382 23.9473 18.0102 23.6753C18.2813 23.4043 18.4168 23.0681 18.4168 22.6667V18.4167H22.7022C23.1036 18.4167 23.4342 18.2807 23.6939 18.0087C23.9536 17.7376 24.0835 17.4014 24.0835 17C24.0835 16.5986 23.9475 16.2619 23.6755 15.9899C23.4044 15.7189 23.0682 15.5833 22.6668 15.5833H18.4168V11.2979C18.4168 10.8965 18.2813 10.566 18.0102 10.3062C17.7382 10.0465 17.4016 9.91666 17.0002 9.91666C16.5988 9.91666 16.2626 10.0522 15.9915 10.3232C15.7195 10.5952 15.5835 10.9319 15.5835 11.3333V15.5833H11.2981C10.8967 15.5833 10.5661 15.7189 10.3064 15.9899C10.0467 16.2619 9.91683 16.5986 9.91683 17C9.91683 17.4014 10.0524 17.7376 10.3234 18.0087C10.5954 18.2807 10.9321 18.4167 11.3335 18.4167H15.5835V22.7021C15.5835 23.1035 15.7195 23.434 15.9915 23.6937C16.2626 23.9535 16.5988 24.0833 17.0002 24.0833ZM17.0002 31.1667C15.0404 31.1667 13.1988 30.7945 11.4752 30.0503C9.75155 29.307 8.25225 28.2979 6.97725 27.0229C5.70225 25.7479 4.69311 24.2486 3.94983 22.525C3.20561 20.8014 2.8335 18.9597 2.8335 17C2.8335 15.0403 3.20561 13.1986 3.94983 11.475C4.69311 9.75138 5.70225 8.25208 6.97725 6.97708C8.25225 5.70208 9.75155 4.69247 11.4752 3.94824C13.1988 3.20497 15.0404 2.83333 17.0002 2.83333C18.9599 2.83333 20.8015 3.20497 22.5252 3.94824C24.2488 4.69247 25.7481 5.70208 27.0231 6.97708C28.2981 8.25208 29.3072 9.75138 30.0505 11.475C30.7947 13.1986 31.1668 15.0403 31.1668 17C31.1668 18.9597 30.7947 20.8014 30.0505 22.525C29.3072 24.2486 28.2981 25.7479 27.0231 27.0229C25.7481 28.2979 24.2488 29.307 22.5252 30.0503C20.8015 30.7945 18.9599 31.1667 17.0002 31.1667Z" fill="#414C60" stroke="#C2CFE4" stroke-width="2"/>
</svg>
