<svg width="34" height="34" viewBox="0 0 34 34" fill="none" xmlns="http://www.w3.org/2000/svg">
<path d="M2.125 0V34H29.75V29.7832H31.875V27.6582H29.75V23.3916H31.875V21.2666H29.75V12.7666H31.875V10.6416H29.75V6.3916H31.875V4.2666H29.75V0H2.125ZM4.25 2.125H27.625V31.875H4.25V2.125ZM6.375 8.5H17V6.375H6.375V8.5ZM6.375 12.75H17V10.625H6.375V12.75ZM22.3125 27.5586C22.7441 27.5586 23.1481 27.4811 23.5244 27.3262C23.9007 27.1712 24.2327 26.9499 24.5205 26.6621C24.8083 26.3743 25.0296 26.0423 25.1846 25.666C25.3395 25.2897 25.4225 24.8802 25.4336 24.4375C25.4336 24.0059 25.3561 23.6019 25.2012 23.2256C25.0462 22.8493 24.8249 22.5228 24.5371 22.2461C24.2493 21.9694 23.9173 21.7425 23.541 21.5654C23.1647 21.3883 22.7552 21.3053 22.3125 21.3164C21.8809 21.3164 21.4769 21.3994 21.1006 21.5654C20.7243 21.7314 20.3978 21.9528 20.1211 22.2295C19.8444 22.5062 19.6175 22.8382 19.4404 23.2256C19.2633 23.613 19.1803 24.0169 19.1914 24.4375C19.1914 24.8691 19.2744 25.2731 19.4404 25.6494C19.6064 26.0257 19.8278 26.3577 20.1045 26.6455C20.3812 26.9333 20.7132 27.1546 21.1006 27.3096C21.488 27.4645 21.8919 27.5475 22.3125 27.5586ZM22.3125 23.3086C22.6335 23.3086 22.8991 23.4137 23.1094 23.624C23.3197 23.8343 23.4303 24.1055 23.4414 24.4375C23.4414 24.7585 23.3363 25.0241 23.126 25.2344C22.9157 25.4447 22.6445 25.5553 22.3125 25.5664C21.9915 25.5664 21.7259 25.4613 21.5156 25.251C21.3053 25.0407 21.1947 24.7695 21.1836 24.4375C21.1836 24.1165 21.2887 23.8509 21.499 23.6406C21.7093 23.4303 21.9805 23.3197 22.3125 23.3086ZM22.3125 12.6836C22.7441 12.6836 23.1481 12.6061 23.5244 12.4512C23.9007 12.2962 24.2327 12.0749 24.5205 11.7871C24.8083 11.4993 25.0296 11.1673 25.1846 10.791C25.3395 10.4147 25.4225 10.0052 25.4336 9.5625C25.4336 9.13086 25.3561 8.72689 25.2012 8.35059C25.0462 7.97428 24.8249 7.64779 24.5371 7.37109C24.2493 7.0944 23.9173 6.86751 23.541 6.69043C23.1647 6.51335 22.7552 6.43034 22.3125 6.44141C21.8809 6.44141 21.4769 6.52441 21.1006 6.69043C20.7243 6.85645 20.3978 7.0778 20.1211 7.35449C19.8444 7.63119 19.6175 7.96322 19.4404 8.35059C19.2633 8.73796 19.1803 9.14193 19.1914 9.5625C19.1914 9.99414 19.2744 10.3981 19.4404 10.7744C19.6064 11.1507 19.8278 11.4827 20.1045 11.7705C20.3812 12.0583 20.7132 12.2796 21.1006 12.4346C21.488 12.5895 21.8919 12.6725 22.3125 12.6836ZM22.3125 8.43359C22.6335 8.43359 22.8991 8.53874 23.1094 8.74902C23.3197 8.95931 23.4303 9.23047 23.4414 9.5625C23.4414 9.88346 23.3363 10.1491 23.126 10.3594C22.9157 10.5697 22.6445 10.6803 22.3125 10.6914C21.9915 10.6914 21.7259 10.5863 21.5156 10.376C21.3053 10.1657 21.1947 9.89453 21.1836 9.5625C21.1836 9.24154 21.2887 8.97591 21.499 8.76562C21.7093 8.55534 21.9805 8.44466 22.3125 8.43359ZM6.375 23.375H17V21.25H6.375V23.375ZM6.375 27.625H17V25.5H6.375V27.625Z" fill="#414C60" stroke="#C2CFE4" />
</svg>
