<svg width="34" height="34" viewBox="0 0 34 34" fill="none" xmlns="http://www.w3.org/2000/svg">
<path d="M24.0832 24.0833C24.6734 24.0833 25.1749 23.8765 25.5877 23.4628C26.0013 23.0501 26.2082 22.5486 26.2082 21.9583C26.2082 21.3681 26.0013 20.8666 25.5877 20.4538C25.1749 20.0402 24.6734 19.8333 24.0832 19.8333C23.4929 19.8333 22.9914 20.0402 22.5787 20.4538C22.165 20.8666 21.9582 21.3681 21.9582 21.9583C21.9582 22.5486 22.165 23.0501 22.5787 23.4628C22.9914 23.8765 23.4929 24.0833 24.0832 24.0833ZM24.0832 28.3333C24.8151 28.3333 25.488 28.1619 26.1019 27.8191C26.7158 27.4772 27.2116 27.0229 27.5894 26.4562C27.07 26.1493 26.5151 25.9132 25.9248 25.7479C25.3346 25.5826 24.7207 25.5 24.0832 25.5C23.4457 25.5 22.8318 25.5826 22.2415 25.7479C21.6512 25.9132 21.0964 26.1493 20.5769 26.4562C20.9547 27.0229 21.4505 27.4772 22.0644 27.8191C22.6783 28.1619 23.3512 28.3333 24.0832 28.3333ZM24.0832 31.1667C22.1234 31.1667 20.4532 30.4763 19.0724 29.0955C17.6907 27.7138 16.9998 26.0431 16.9998 24.0833C16.9998 22.1236 17.6907 20.4529 19.0724 19.0712C20.4532 17.6904 22.1234 17 24.0832 17C26.0429 17 27.7136 17.6904 29.0953 19.0712C30.4761 20.4529 31.1665 22.1236 31.1665 24.0833C31.1665 26.0431 30.4761 27.7138 29.0953 29.0955C27.7136 30.4763 26.0429 31.1667 24.0832 31.1667ZM16.9998 31.0604H16.6627C16.5569 31.0604 16.445 31.0368 16.3269 30.9896C13.2339 30.0451 10.6839 28.1326 8.67692 25.2521C6.66998 22.3715 5.6665 19.1958 5.6665 15.725V9.03125C5.6665 8.44097 5.83792 7.90972 6.18075 7.4375C6.52264 6.96528 6.96512 6.62292 7.50817 6.41042L16.0082 3.22292C16.3387 3.10486 16.6693 3.04583 16.9998 3.04583C17.3304 3.04583 17.6609 3.10486 17.9915 3.22292L26.4915 6.41042C27.0346 6.62292 27.4775 6.96528 27.8203 7.4375C28.1622 7.90972 28.3332 8.44097 28.3332 9.03125V15.1229C27.8846 14.934 27.4241 14.7626 26.9519 14.6087C26.4797 14.4557 25.9957 14.3438 25.4998 14.2729V9.06667L16.9998 5.87917L8.49984 9.06667V15.725C8.49984 16.8347 8.64717 17.9444 8.94184 19.0542C9.23745 20.1639 9.65112 21.2207 10.1828 22.2247C10.7136 23.2277 11.3568 24.1542 12.1123 25.0042C12.8679 25.8542 13.7061 26.5625 14.6269 27.1292C14.8866 27.8847 15.2172 28.5931 15.6186 29.2542C16.02 29.9153 16.4922 30.5174 17.0353 31.0604H16.9998Z" fill="#414C60" stroke="#C2CFE4" stroke-width="2"/>
</svg>
