<svg width="300" height="739" viewBox="0 0 300 739" fill="none" xmlns="http://www.w3.org/2000/svg">
<path d="M226.325 286.54C215.162 292.724 191.348 305.67 181.425 308.226C179.854 303.938 168.526 281.097 167.12 276.974C159.926 282.169 151.492 283.324 144.05 288.024C149.508 301.547 168.278 334.86 171.999 336.509C180.929 340.549 209.787 319.028 226.325 306.329V286.54Z" fill="#F48C7F"/>
<path d="M95.6778 255.206C112.629 243.827 122.055 215.296 114.365 196.578C122.386 188.498 126.686 190.642 126.52 179.262C126.272 156.834 158.686 147.434 136.443 138.693C113.786 131.107 92.701 142.899 80.3805 155.68C74.7577 161.452 68.1426 166.234 60.618 169.203C45.6515 175.14 35.8943 192.538 40.9383 212.658C28.9485 217.523 16.7934 234.426 22.3334 250.423C23.6565 254.299 26.7159 258.916 26.7159 259.988C26.6332 258.669 12.1628 290.992 48.959 307.236C86.4167 323.975 99.2333 287.611 95.6778 255.206Z" fill="#2F3B50"/>
<path d="M70.7886 283.489L75.0057 323.645C75.0057 323.645 81.3726 340.714 88.0704 337.086C94.7681 333.458 109.487 328.923 116.432 316.059C123.378 303.113 127.678 315.729 127.182 295.033C126.686 274.336 136.029 276.727 125.776 267.409C115.523 258.092 126.934 252.65 109.487 255.783C92.0394 258.916 70.7886 283.489 70.7886 283.489Z" fill="#FEEAFA"/>
<path d="M109.156 685.47C109.156 685.47 110.975 708.805 109.487 716.391C108.66 720.432 104.277 728.843 106.262 732.636C108.329 736.429 110.644 737.418 110.644 737.418L163.565 738.243C166.459 738.325 164.557 736.429 162.242 734.697C158.438 731.893 155.379 730.079 143.223 724.142C142.397 723.73 139.585 721.916 138.51 721.256C135.864 719.607 133.218 717.134 130.986 714.577C127.182 710.372 126.851 689.758 126.851 689.758L109.156 685.47Z" fill="#F7A491"/>
<path d="M138.51 721.421C124.536 725.049 114.2 722.576 108.412 720.267C106.923 724.472 104.939 729.832 106.014 732.883C107.337 736.676 109.156 737.501 110.727 737.501C123.544 737.83 157.528 738.325 167.286 738.408C168.609 738.408 169.436 736.841 168.526 735.769C166.045 732.883 139.502 721.999 138.51 721.421Z" fill="#CCACB3"/>
<path d="M19.522 676.07C19.522 676.07 16.5452 696.767 11.4186 703.446C9.68213 705.672 6.53998 708.558 4.47278 712.598C1.24795 718.948 3.06709 728.265 5.38235 733.46C6.62267 736.099 5.29966 736.099 8.02837 736.923C16.2145 739.48 24.8967 735.192 28.4523 727.358C30.4368 722.988 32.0906 717.134 32.4213 709.712C33.3309 690.912 39.1191 681.347 39.1191 681.347L19.522 676.07Z" fill="#F7A491"/>
<path d="M150.5 375.1C150.5 375.1 157.198 413.031 152.815 437.85C148.433 462.67 127.43 693.138 127.43 693.138L104.112 694.458C104.112 694.458 99.2333 598.23 100.06 584.789C100.97 571.431 107.833 549.003 107.833 549.003L105.518 471.328L134.955 369.246L150.5 375.1Z" fill="#CCACB3"/>
<path d="M30.1061 723.235C17.3721 725.544 8.93796 718.123 4.5555 712.516C1.33066 718.865 -0.240412 728.265 2.15754 733.46C4.22474 737.995 10.3437 737.913 15.1396 738.078C20.2662 738.243 24.1526 735.439 26.7159 730.986C27.8735 728.925 29.1138 726.286 30.1061 723.235Z" fill="#CCACB3"/>
<path d="M146.2 304.103C146.2 304.103 119.575 276.892 112.711 265.018C105.848 253.144 117.342 260.895 129.166 257.762C133.631 256.607 132.474 230.551 140.908 238.962C154.717 252.814 172.081 277.139 172.081 277.139L146.2 304.103Z" fill="#FEEAFA"/>
<path d="M154.717 288.931C152.733 275.738 143.637 242.837 140.908 239.044C137.931 234.839 108.329 227.088 108.329 227.088C108.329 227.088 84.4322 222.388 73.5174 231.458C67.8946 236.158 68.7215 259.741 70.7887 283.406L154.717 288.931Z" fill="#FEEAFA"/>
<path d="M115.688 193.857C115.688 193.857 115.523 194.599 115.358 195.754C114.283 201.608 111.223 221.81 108.412 227.088C105.022 233.519 118.996 253.062 133.466 250.506C137.766 249.763 129.828 231.705 130.159 229.809C130.903 226.181 131.895 221.151 132.887 216.038C133.466 213.152 134.045 210.184 134.624 207.463C136.195 199.629 137.435 193.28 137.435 193.28L115.688 193.857Z" fill="#F7A491"/>
<path d="M115.358 195.754C115.606 194.517 115.688 193.857 115.688 193.857L137.435 193.28C137.435 193.28 136.195 199.712 134.624 207.463C134.045 210.184 133.466 213.07 132.97 215.956C129.58 215.461 126.107 213.812 122.551 210.761C118.748 207.38 116.184 203.422 114.696 199.135C114.944 197.815 115.192 196.661 115.358 195.754Z" fill="#C56D59"/>
<path d="M128.257 178.685C127.678 183.55 125.363 187.261 123.13 186.931C120.898 186.684 119.575 182.478 120.153 177.696C120.732 172.831 123.048 169.12 125.28 169.45C127.595 169.697 128.836 173.82 128.257 178.685Z" fill="#F7A491"/>
<path d="M96.7526 157.246C89.8895 175.222 112.629 191.796 131.895 194.764C144.464 196.661 150.417 196.084 154.055 183.138C160.092 162.111 152.815 147.929 141.156 140.92C126.024 131.932 102.375 142.404 96.7526 157.246Z" fill="#2F3B50"/>
<path d="M126.768 148.341C126.768 148.341 117.921 150.155 112.298 158.153C106.675 166.152 105.435 193.857 123.213 205.319C140.908 216.781 152.236 197.238 152.732 181.901C153.229 166.564 150.334 146.032 126.768 148.341Z" fill="#F7A491"/>
<path d="M133.218 192.043L146.614 193.528C146.614 193.528 145.704 198.64 139.833 198.228C132.639 197.65 133.218 192.043 133.218 192.043Z" fill="white"/>
<path d="M102.954 178.026C101.962 163.513 104.443 152.876 115.192 148.918C125.942 144.96 135.203 140.92 143.141 151.392L145.042 152.794C145.042 152.794 127.347 155.35 125.28 164.255C123.213 173.161 120.319 183.962 118.086 190.064C116.515 194.435 114.2 201.443 114.2 201.443L111.554 197.486C111.471 197.568 103.947 192.538 102.954 178.026Z" fill="#2F3B50"/>
<path d="M122.551 180.252C123.461 184.375 121.89 188.168 119.079 188.745C116.267 189.322 113.208 186.519 112.298 182.396C111.389 178.273 112.96 174.48 115.771 173.903C118.582 173.325 121.642 176.129 122.551 180.252Z" fill="#F7A491"/>
<path d="M82.8611 227.253C82.5304 228.242 82.365 228.819 82.365 228.819L84.1841 226.923C83.7707 227.088 83.2746 227.17 82.8611 227.253Z" fill="#EFD3D7"/>
<path d="M155.13 292.394C154.634 282.746 143.471 243.249 140.908 238.797C139.916 237.065 139.254 236.653 137.187 236.57C142.397 252.32 146.2 275.738 146.2 275.738C136.691 277.552 123.213 275.738 123.213 275.738C111.967 249.928 108.081 238.219 102.127 226.263C102.127 226.263 101.714 225.933 100.887 225.686C99.8949 225.356 98.9026 225.356 97.9104 225.521L95.347 225.933C95.347 225.933 120.815 279.943 118.665 289.013C116.763 296.764 97.0008 319.358 75.0885 323.645C75.6673 328.84 75.998 332.798 75.998 334.942C75.998 348.3 68.4734 391.673 68.4734 391.673C64.5871 399.918 60.9488 409.236 59.295 417.894C54.9126 440.817 62.5199 511.318 54.0857 541.415C49.5378 557.659 32.256 582.809 29.61 603.836C26.964 624.862 16.7107 679.944 16.7107 679.944L40.0287 684.561L94.1894 546.94L136.691 422.594L141.9 391.838C146.448 390.106 150.004 387.715 151.906 384.416C151.906 384.499 155.627 302.041 155.13 292.394Z" fill="#EFD3D7"/>
<path d="M222.687 277.717L224.671 278.046C226.325 271.532 228.723 264.358 232.196 257.102C245.26 229.397 242.036 225.109 259.317 209.194C276.599 193.28 283.38 155.845 283.38 155.845C283.38 155.845 296.858 114.204 292.723 94.4137C288.589 74.5415 290.904 55.6588 277.013 33.3128C277.013 33.3128 269.736 59.3693 263.865 70.8309C257.994 82.2925 252.372 93.2593 250.966 122.697C249.56 152.134 251.049 154.855 250.552 162.441C250.056 170.027 244.185 201.608 245.012 207.051C245.839 212.493 229.302 247.125 226.077 262.544C225.084 267.08 223.844 272.274 222.687 277.717Z" fill="#215E4B"/>
<path d="M230.129 272.274C232.857 267.904 237.157 263.781 243.855 261.967C261.385 257.185 272.382 258.999 282.718 242.59C292.972 226.263 296.61 202.268 300 197.733C300 197.733 293.137 195.507 284.207 206.968C275.276 218.43 269.075 227.088 263.948 233.767C258.739 240.446 253.199 237.56 247.41 242.342C242.532 246.383 237.074 256.607 234.759 261.885C234.015 263.616 233.023 265.183 231.865 266.667C230.79 267.987 229.55 269.636 228.806 270.79C228.64 271.038 228.475 271.45 228.227 271.945L230.129 272.274Z" fill="#3C8F7C"/>
<path d="M204.826 269.471C203.916 264.523 201.518 259.246 196.144 255.123C182.004 244.404 171.337 242.095 167.947 223.542C164.557 204.989 169.932 181.983 168.526 176.624C168.526 176.624 175.554 177.036 179.441 190.724C183.41 204.329 185.89 214.389 188.123 222.388C190.356 230.304 196.475 229.644 200.03 236.076C203.007 241.518 204.247 252.732 204.413 258.339C204.495 260.153 204.743 261.967 205.239 263.699C205.736 265.265 206.232 267.244 206.562 268.564C206.645 268.894 206.645 269.306 206.645 269.883L204.826 269.471Z" fill="#3C8F7C"/>
<path d="M182.5 154.525C177.704 174.975 191.182 175.304 189.694 188.58C188.206 201.773 202.097 226.675 207.637 243.744C210.531 252.649 210.118 265.43 209.126 275.738L215.575 276.727C216.981 250.588 209.291 231.046 205.157 215.709C199.865 196.001 199.947 187.343 209.043 173.903C218.139 160.462 213.756 121.46 225.994 106.288C238.315 91.1154 237.322 64.1519 236.578 53.6798C235.834 43.2901 239.39 36.776 243.028 26.4688C246.666 16.1617 244.764 0.0824585 244.764 0.0824585C242.366 13.1932 229.632 29.6022 220.619 40.0743C211.606 50.5464 193.084 79.8188 192.505 94.3313C191.927 108.761 191.017 109.751 191.017 109.751C182.914 127.891 187.213 134.076 182.5 154.525Z" fill="#215E4B"/>
<path d="M209.953 167.389C206.645 187.178 221.116 197.073 219.214 208.04C217.229 219.007 218.966 231.376 220.619 240.611C221.612 246.465 218.221 261.967 215.658 276.562L219.958 277.222C222.687 266.585 226.242 251.248 226.904 244.321C227.813 234.839 233.271 227.995 236.247 211.668C239.307 195.342 245.012 181.159 240.878 159.39C236.744 137.621 241.87 113.132 214.914 85.7557C214.914 85.7557 205.818 109.091 207.885 122.862C209.953 136.632 213.26 147.599 209.953 167.389Z" fill="#3C8F7C"/>
<path d="M209.953 167.389C206.645 187.178 221.116 197.073 219.214 208.04C217.229 219.007 218.966 231.376 220.62 240.611C221.612 246.465 218.222 261.967 215.658 276.562L217.477 276.81C218.222 273.759 218.718 271.862 218.718 271.862L225.25 234.921C225.25 234.921 227.896 205.649 228.227 181.571C228.558 157.494 214.997 85.6733 214.997 85.6733C214.997 85.6733 205.901 109.009 207.968 122.779C209.953 136.632 213.26 147.599 209.953 167.389Z" fill="#327F6B"/>
<path d="M221.529 261.72L218.635 261.308L179.854 255.453C177.043 255.041 174.48 257.35 174.728 260.236L180.185 326.449C180.35 328.51 181.921 330.159 183.989 330.489L207.555 334.035L210.449 334.447L234.015 337.993C236.082 338.323 238.067 337.168 238.811 335.272L263.7 273.676C264.775 271.038 263.121 268.069 260.227 267.574L221.529 261.72Z" fill="#8E9AAF"/>
<path d="M214.087 304.68C214.914 302.289 203.338 300.392 202.759 298.001C202.097 295.61 217.312 295.362 217.891 293.219C218.883 289.343 201.188 292.476 201.601 290.662C201.932 288.848 219.958 284.725 218.056 281.592C216.072 278.459 199.782 287.776 199.286 285.715C198.79 283.571 215.245 278.376 214.914 273.759C214.749 271.285 187.958 286.21 184.816 284.89C181.673 283.571 188.123 271.862 185.642 270.213C183.162 268.481 176.133 293.878 174.397 294.785C172.66 295.61 136.443 316.389 123.544 319.77C121.973 315.482 110.644 292.641 109.239 288.518C102.045 293.713 93.6106 294.868 86.1687 299.568C91.6261 313.091 110.396 346.404 114.117 348.053C125.611 353.165 169.932 316.224 178.779 309.957C187.627 303.608 192.754 305.67 198.707 303.608C204.661 301.629 213.26 306.989 214.087 304.68Z" fill="#F7A491"/>
<path d="M82.5303 303.196C82.5303 303.196 66.8196 268.481 64.4216 255.041C62.0237 241.6 73.6 224.696 85.7552 225.768C97.9103 226.84 116.102 286.704 116.102 286.704L82.5303 303.196Z" fill="#FEEAFA"/>
</svg>
